<svg id="Ebene_1" data-name="Ebene 1" xmlns="http://www.w3.org/2000/svg" viewBox="0 0 283.46 42.47"><defs><style>.cls-1{fill:#98694c;}</style></defs><title>Jo&amp;amp;Judy_Logo_redesign</title><path class="cls-1" d="M186.63,55.7q1.19-2.1,1.19-6.86V25h1.57V49.31q0,10.72-8.77,10.72-5.77,0-7.63-4.62a4,4,0,0,0,.74-.26l.74-.36q1.57,3.86,6.29,3.86,4.29,0,5.86-3Zm23-30.69V46.55q0,12.06,10.77,12.06,5.48,0,8.25-3.34,2.53-3.1,2.53-8.72V25h1.57V47.31q0,6-3.19,9.29T220.42,60q-5.91,0-9.15-3.38t-3.19-9.29V25Zm41.19,0h7.86q7.58,0,11,1.67,7.58,3.81,7.58,15.49,0,11.87-7.58,15.44-3.62,1.67-11,1.67h-7.86Zm8.25,32.84q6.91,0,10.2-1.72,6.34-3.34,6.34-14,0-8.63-4.53-12.73a11.59,11.59,0,0,0-5.67-2.57,24.85,24.85,0,0,0-2.67-.29q-1.57-.09-3.67-.1h-6.62V57.84Zm39.39-13.73L286.7,25h1.81L299.33,42.5,310,25h1.81L300,44.21V59.27h-1.57Z" transform="translate(-28.35 -21.28)"/><rect class="cls-1" x="91.28" y="41.23" width="26.32" height="1.24"/><path class="cls-1" d="M126.86,31.25a6.2,6.2,0,0,1-1.33-3.72,4.89,4.89,0,0,1,5.08-4.77,5.36,5.36,0,0,1,5.59,5.17c-.27,4.62-5.75,6.53-5.75,6.53a18.22,18.22,0,0,1-3.59-3.2m3.71-10c-1.94,0-2.83.27-4.7,1.94-5.71,6.81,3,12,3,12-5.83,2.14-9.18,5.94-9.3,11.31a9.3,9.3,0,0,0,3,7.39,10.58,10.58,0,0,0,7.53,2.72q5.86,0,10.29-5.48l3.76,4.58h2l-4.81-6a18.8,18.8,0,0,0,2.29-9.48h-1.48a17.37,17.37,0,0,1-1.72,8.25,12.16,12.16,0,0,1-4.81,5,11.17,11.17,0,0,1-5.91,1.72,8.25,8.25,0,0,1-6.15-2.48,8.81,8.81,0,0,1-2.38-6.29,8.51,8.51,0,0,1,2.72-6,19.69,19.69,0,0,1,6.62-4.15c4.61-1.94,7.17-4.75,7.17-8.46a6.45,6.45,0,0,0-2-4.74A7.21,7.21,0,0,0,130.57,21.28Z" transform="translate(-28.35 -21.28)"/><path class="cls-1" d="M42,55.7q1.19-2.1,1.19-6.86V25h1.57V49.31Q44.74,60,36,60q-5.77,0-7.63-4.62a4,4,0,0,0,.74-.26l.74-.36q1.57,3.86,6.29,3.86,4.29,0,5.86-3ZM64,29.58q4-5.34,11.58-5.34t11.63,5.29q3.57,4.81,3.57,12.63T87.22,54.74Q83.22,60,75.59,60T64,54.74Q60.44,50,60.44,42.16T64,29.58ZM65.2,53.65q3.53,5,10.39,5t10.44-5q3.1-4.34,3.1-11.49T86,30.68q-3.57-5-10.39-5t-10.39,5q-3.1,4.39-3.1,11.49t3.1,11.49Z" transform="translate(-28.35 -21.28)"/></svg>